<svg xmlns="http://www.w3.org/2000/svg" xmlns:xlink="http://www.w3.org/1999/xlink" viewBox="0 0 2070.23 824.62"><defs><style>.cls-1{fill:url(#linear-gradient);}.cls-2{fill:url(#linear-gradient-2);}.cls-3{fill:url(#linear-gradient-3);}</style><linearGradient id="linear-gradient" x1="2300.34" y1="412.31" x2="1027.85" y2="412.31" gradientUnits="userSpaceOnUse"><stop offset="0" stop-color="#6156f9"/><stop offset="1" stop-color="#1a129f"/></linearGradient><linearGradient id="linear-gradient-2" x1="1958.29" y1="510.6" x2="875.02" y2="510.6" xlink:href="#linear-gradient"/><linearGradient id="linear-gradient-3" x1="2316.59" y1="556.03" x2="1035.11" y2="556.03" xlink:href="#linear-gradient"/></defs><g id="Layer_2" data-name="Layer 2"><g id="Layer_1-2" data-name="Layer 1"><path class="cls-1" d="M2055.71,811.36,2052,824.62H140.46L0,785.5V138.17C317.2-9.45,595.39-116.17,887.28,238.75q26.16,31.81,52.65,60.61c68.93,75,139.3,135.32,210,184.44C1353.1,625,1559,674,1741.07,716.13,1858.11,743.19,1965.34,767.39,2055.71,811.36Z"/><path class="cls-2" d="M1750,824.62H0v-100c160.24-11.61,351.18,15,555.92-85.2,100.82-49.35,205-129.45,310.49-260,25-31,49.51-57.54,73.52-80,190.77-178.71,351.57-100.87,516.85,54.56,89.7,84.34,180.72,191.54,278.57,293l5.72,69.22Z"/><path class="cls-3" d="M2070.23,316.25V824.62H0V665.29c173.08,3.14,358.65.53,555.92-25.89,187.64-25.14,385.87-71.82,594-155.6q68.55-27.58,138.54-60.72a1632.36,1632.36,0,0,1,168.32-69.16C1689.22,273.83,1886.82,272.41,2070.23,316.25Z"/></g></g></svg>